<svg width="36" height="37" viewBox="0 0 36 37" fill="none" xmlns="http://www.w3.org/2000/svg">
<path fill-rule="evenodd" clip-rule="evenodd" d="M30.6338 18.4925C31.0731 18.9318 31.0731 19.6441 30.6338 20.0835L29.681 21.0362C29.2417 21.4756 28.5293 21.4756 28.09 21.0362C27.6507 20.5969 27.6507 19.8846 28.09 19.4453L29.0428 18.4925C29.4821 18.0531 30.1944 18.0531 30.6338 18.4925Z" fill="#00F7FF"/>
<path fill-rule="evenodd" clip-rule="evenodd" d="M20.5362 28.59C20.9756 29.0293 20.9756 29.7417 20.5362 30.181L19.5835 31.1338C19.1441 31.5731 18.4318 31.5731 17.9925 31.1338C17.5531 30.6944 17.5531 29.9821 17.9925 29.5428L18.9453 28.59C19.3846 28.1507 20.0969 28.1507 20.5362 28.59Z" fill="#00F7FF"/>
<path fill-rule="evenodd" clip-rule="evenodd" d="M24.3131 15.8744C24.9344 15.8744 25.4381 16.3781 25.4381 16.9994V18.3468C25.4381 18.9681 24.9344 19.4718 24.3131 19.4718C23.6918 19.4718 23.1881 18.9681 23.1881 18.3468V16.9994C23.1881 16.3781 23.6918 15.8744 24.3131 15.8744Z" fill="#00F7FF"/>
<path fill-rule="evenodd" clip-rule="evenodd" d="M17.9925 18.4925C18.4318 18.0531 19.1441 18.0531 19.5835 18.4925L20.5362 19.4453C20.9756 19.8846 20.9756 20.5969 20.5362 21.0362C20.0969 21.4756 19.3846 21.4756 18.9453 21.0362L17.9925 20.0835C17.5531 19.6441 17.5531 18.9318 17.9925 18.4925Z" fill="#00F7FF"/>
<path fill-rule="evenodd" clip-rule="evenodd" d="M15.3744 24.8131C15.3744 24.1918 15.8781 23.6881 16.4994 23.6881H17.8468C18.4681 23.6881 18.9718 24.1918 18.9718 24.8131C18.9718 25.4344 18.4681 25.9381 17.8468 25.9381H16.4994C15.8781 25.9381 15.3744 25.4344 15.3744 24.8131Z" fill="#00F7FF"/>
<path fill-rule="evenodd" clip-rule="evenodd" d="M22.618 23.1179C23.1416 22.5943 23.9162 22.4114 24.6188 22.6456L31.2936 24.8705C32.0179 25.112 32.5355 25.753 32.6188 26.512C32.7021 27.271 32.336 28.0091 31.6813 28.4019L29.434 29.7503C29.3587 29.7955 29.2956 29.8586 29.2504 29.9339L27.902 32.1812C27.5092 32.8359 26.7711 33.2021 26.0121 33.1188C25.2531 33.0355 24.612 32.5179 24.3706 31.7935L22.1456 25.1188C21.9114 24.4162 22.0943 23.6416 22.618 23.1179ZM24.4666 24.9666L29.974 26.8024L28.2764 27.8209C27.8844 28.0562 27.5562 28.3843 27.321 28.7763L26.3024 30.474L24.4666 24.9666Z" fill="#00F7FF"/>
<path fill-rule="evenodd" clip-rule="evenodd" d="M27.7399 28.2399C28.1792 27.8005 28.8915 27.8005 29.3309 28.2399L31.875 30.784C32.3143 31.2233 32.3143 31.9356 31.875 32.375C31.4356 32.8143 30.7233 32.8143 30.284 32.375L27.7399 29.8309C27.3005 29.3915 27.3005 28.6792 27.7399 28.2399Z" fill="#00F7FF"/>
<path fill-rule="evenodd" clip-rule="evenodd" d="M3.36938 10.9969C3.36938 10.3756 3.87306 9.87189 4.49438 9.87189H31.5056C32.127 9.87189 32.6306 10.3756 32.6306 10.9969C32.6306 11.6182 32.127 12.1219 31.5056 12.1219H4.49438C3.87306 12.1219 3.36938 11.6182 3.36938 10.9969Z" fill="#00F7FF"/>
<path fill-rule="evenodd" clip-rule="evenodd" d="M8.99626 6.11938C7.13126 6.11938 5.61938 7.63126 5.61938 9.49626V21.5013C5.61938 23.3663 7.13126 24.8781 8.99626 24.8781H10.4969C11.1182 24.8781 11.6219 25.3818 11.6219 26.0031C11.6219 26.6245 11.1182 27.1281 10.4969 27.1281H8.99626C5.88862 27.1281 3.36938 24.6089 3.36938 21.5013V9.49626C3.36938 6.38862 5.88862 3.86938 8.99626 3.86938H27.0038C30.1114 3.86938 32.6306 6.38862 32.6306 9.49626V13.9981C32.6306 14.6195 32.127 15.1231 31.5056 15.1231C30.8843 15.1231 30.3806 14.6195 30.3806 13.9981V9.49626C30.3806 7.63126 28.8688 6.11938 27.0038 6.11938H8.99626Z" fill="#00F7FF"/>
</svg>
