<svg width="36" height="37" viewBox="0 0 36 37" fill="none" xmlns="http://www.w3.org/2000/svg">
<path fill-rule="evenodd" clip-rule="evenodd" d="M10.5 6.125C9.46447 6.125 8.625 6.96447 8.625 8V14C8.625 14.6213 8.12132 15.125 7.5 15.125C6.87868 15.125 6.375 14.6213 6.375 14V8C6.375 5.72183 8.22183 3.875 10.5 3.875H28.5C30.7782 3.875 32.625 5.72183 32.625 8V27.5C32.625 29.7782 30.7782 31.625 28.5 31.625H22.5C21.8787 31.625 21.375 31.1213 21.375 30.5C21.375 29.8787 21.8787 29.375 22.5 29.375H28.5C29.5355 29.375 30.375 28.5355 30.375 27.5V8C30.375 6.96447 29.5355 6.125 28.5 6.125H10.5ZM21.375 11C21.375 10.3787 21.8787 9.875 22.5 9.875H25.4998H25.5C26.1213 9.875 26.625 10.3787 26.625 11V14C26.625 14.6213 26.1213 15.125 25.5 15.125C24.8787 15.125 24.375 14.6213 24.375 14V13.7168L21.7979 16.2953C21.5862 16.5071 21.3111 16.6168 21.0337 16.6246C20.776 16.6324 20.5143 16.5522 20.2973 16.3785L17.3335 14.0075L15.7955 15.5455C15.3562 15.9848 14.6438 15.9848 14.2045 15.5455C13.7652 15.1062 13.7652 14.3938 14.2045 13.9545L16.4487 11.7103C16.6653 11.49 16.9556 11.3756 17.2485 11.375C17.3844 11.3747 17.5208 11.399 17.6507 11.4485C17.762 11.4908 17.8679 11.5514 17.9638 11.6303L20.9175 13.9933L22.7848 12.125H22.5C21.8787 12.125 21.375 11.6213 21.375 11ZM21.375 20C21.375 19.3787 21.8787 18.875 22.5 18.875H25.5C26.1213 18.875 26.625 19.3787 26.625 20C26.625 20.6213 26.1213 21.125 25.5 21.125H22.5C21.8787 21.125 21.375 20.6213 21.375 20ZM22.5 23.375C21.8787 23.375 21.375 23.8787 21.375 24.5C21.375 25.1213 21.8787 25.625 22.5 25.625H25.5C26.1213 25.625 26.625 25.1213 26.625 24.5C26.625 23.8787 26.1213 23.375 25.5 23.375H22.5ZM13.6468 24.0293C14.0862 24.4685 14.0864 25.1808 13.6472 25.6203L10.6488 28.6203C10.2096 29.0597 9.49744 29.0599 9.05796 28.6209L7.25637 26.8209C6.81684 26.3817 6.81652 25.6694 7.25567 25.2299C7.69481 24.7903 8.40712 24.79 8.84666 25.2292L9.85254 26.2342L12.0558 24.0297C12.495 23.5903 13.2073 23.5901 13.6468 24.0293ZM7.5 17.375C4.3934 17.375 1.875 19.8934 1.875 23V29C1.875 32.1066 4.3934 34.625 7.5 34.625H13.5C16.6066 34.625 19.125 32.1066 19.125 29V23C19.125 19.8934 16.6066 17.375 13.5 17.375H7.5ZM4.125 23C4.125 21.136 5.63604 19.625 7.5 19.625H13.5C15.364 19.625 16.875 21.136 16.875 23V29C16.875 30.864 15.364 32.375 13.5 32.375H7.5C5.63604 32.375 4.125 30.864 4.125 29V23Z" fill="#00F7FF"/>
</svg>
