<svg width="36" height="37" viewBox="0 0 36 37" fill="none" xmlns="http://www.w3.org/2000/svg">
<path fill-rule="evenodd" clip-rule="evenodd" d="M3.7045 14.3295C4.14384 13.8902 4.85616 13.8902 5.2955 14.3295L7.5455 16.5795C7.98484 17.0188 7.98484 17.7312 7.5455 18.1705C7.10616 18.6098 6.39384 18.6098 5.9545 18.1705L4.5 16.716L3.0455 18.1705C2.60616 18.6098 1.89384 18.6098 1.4545 18.1705C1.01517 17.7312 1.01517 17.0188 1.4545 16.5795L3.7045 14.3295Z" fill="#00F7FF"/>
<path fill-rule="evenodd" clip-rule="evenodd" d="M28.4545 18.8295C28.8938 18.3902 29.6062 18.3902 30.0455 18.8295L31.5 20.284L32.9545 18.8295C33.3938 18.3902 34.1062 18.3902 34.5455 18.8295C34.9848 19.2688 34.9848 19.9812 34.5455 20.4205L32.2955 22.6705C31.8562 23.1098 31.1438 23.1098 30.7045 22.6705L28.4545 20.4205C28.0152 19.9812 28.0152 19.2688 28.4545 18.8295Z" fill="#00F7FF"/>
<path fill-rule="evenodd" clip-rule="evenodd" d="M18 6.125C13.8453 6.125 10.1813 8.18475 7.93302 11.3381C7.57232 11.844 6.8698 11.9617 6.3639 11.601C5.858 11.2403 5.74029 10.5378 6.10098 10.0319C8.74872 6.31825 13.0797 3.875 18 3.875C26.0763 3.875 32.625 10.4237 32.625 18.5C32.625 19.6175 32.4894 20.6965 32.2571 21.729C32.1207 22.3351 31.5187 22.7159 30.9125 22.5796C30.3064 22.4432 29.9255 21.8412 30.0619 21.2351C30.2616 20.3475 30.375 19.4345 30.375 18.5C30.375 11.6663 24.8337 6.125 18 6.125Z" fill="#00F7FF"/>
<path fill-rule="evenodd" clip-rule="evenodd" d="M5.95066 10.3265C6.14867 9.73754 6.78661 9.42065 7.37554 9.61866C10.7197 10.7431 14.2843 11.375 18 11.375C21.7157 11.375 25.2803 10.7431 28.6245 9.61866C29.2134 9.42065 29.8513 9.73754 30.0493 10.3265C30.2474 10.9154 29.9305 11.5533 29.3415 11.7513C25.7797 12.9489 21.9733 13.625 18 13.625C14.0267 13.625 10.2203 12.9489 6.65847 11.7513C6.06954 11.5533 5.75265 10.9154 5.95066 10.3265Z" fill="#00F7FF"/>
<path fill-rule="evenodd" clip-rule="evenodd" d="M5.08145 14.4144C5.68762 14.5508 6.06845 15.1528 5.93206 15.759C5.73236 16.6465 5.619 17.5595 5.619 18.494C5.619 25.3277 11.1603 30.869 17.994 30.869C22.1503 30.869 25.8142 28.8092 28.0608 25.6562C28.4213 25.1502 29.1238 25.0322 29.6298 25.3928C30.1358 25.7533 30.2538 26.4558 29.8932 26.9618C27.2468 30.6758 22.9157 33.119 17.994 33.119C9.91768 33.119 3.369 26.5703 3.369 18.494C3.369 17.3765 3.50464 16.2975 3.73694 15.265C3.87333 14.6589 4.47529 14.2781 5.08145 14.4144Z" fill="#00F7FF"/>
<path fill-rule="evenodd" clip-rule="evenodd" d="M17.9955 25.619C14.2798 25.619 10.7152 26.2509 7.37104 27.3753C6.78211 27.5734 6.14417 27.2565 5.94616 26.6675C5.74815 26.0786 6.06504 25.4407 6.65397 25.2427C10.2158 24.0451 14.0222 23.369 17.9955 23.369C21.9688 23.369 25.7752 24.0451 29.337 25.2427C29.926 25.4407 30.2429 26.0786 30.0448 26.6675C29.8468 27.2565 29.2089 27.5734 28.62 27.3753C25.2758 26.2509 21.7112 25.619 17.9955 25.619Z" fill="#00F7FF"/>
<path fill-rule="evenodd" clip-rule="evenodd" d="M15.0091 5.27139C15.82 4.44814 16.8315 3.875 18 3.875C19.1685 3.875 20.18 4.44814 20.9909 5.27139C21.798 6.09068 22.4731 7.21849 23.0159 8.52137C24.1037 11.132 24.75 14.6607 24.75 18.5C24.75 22.3393 24.1037 25.868 23.0159 28.4786C22.4731 29.7815 21.798 30.9093 20.9909 31.7286C20.18 32.5519 19.1685 33.125 18 33.125C16.8315 33.125 15.82 32.5519 15.0091 31.7286C14.202 30.9093 13.5269 29.7815 12.9841 28.4786C11.8963 25.868 11.25 22.3393 11.25 18.5C11.25 14.6607 11.8963 11.132 12.9841 8.52137C13.5269 7.21849 14.202 6.09068 15.0091 5.27139ZM15.061 9.38675C14.1129 11.6621 13.5 14.8835 13.5 18.5C13.5 22.1165 14.1129 25.3379 15.061 27.6132C15.536 28.7534 16.0731 29.6026 16.6119 30.1496C17.1469 30.6926 17.6152 30.875 18 30.875C18.3848 30.875 18.8531 30.6926 19.3881 30.1496C19.9269 29.6026 20.464 28.7534 20.939 27.6132C21.8871 25.3379 22.5 22.1165 22.5 18.5C22.5 14.8835 21.8871 11.6621 20.939 9.38675C20.464 8.24661 19.9269 7.39739 19.3881 6.8504C18.8531 6.30738 18.3848 6.125 18 6.125C17.6152 6.125 17.1469 6.30738 16.6119 6.8504C16.0731 7.39739 15.536 8.24661 15.061 9.38675Z" fill="#00F7FF"/>
</svg>
