<svg width="24" height="24" viewBox="0 0 24 24" fill="none" xmlns="http://www.w3.org/2000/svg">
<g id="icon/action/explore_24px">
<path id="icon/action/explore_24px_2" fill-rule="evenodd" clip-rule="evenodd" d="M12 2C6.48 2 2 6.48 2 12C2 17.52 6.48 22 12 22C17.52 22 22 17.52 22 12C22 6.48 17.52 2 12 2ZM12.0004 10.8999C11.3904 10.8999 10.9004 11.3899 10.9004 11.9999C10.9004 12.6099 11.3904 13.0999 12.0004 13.0999C12.6104 13.0999 13.1004 12.6099 13.1004 11.9999C13.1004 11.3899 12.6104 10.8999 12.0004 10.8999ZM6 18L14.19 14.19L18 6L9.81 9.81L6 18Z" fill="white"/>
</g>
</svg>
