<svg width="56" height="56" viewBox="0 0 56 56" fill="none" xmlns="http://www.w3.org/2000/svg">
<rect width="56" height="55.5249" rx="14.5422" fill="#00F7FF" fill-opacity="0.12"/>
<path fill-rule="evenodd" clip-rule="evenodd" d="M16.3333 13H39.6667C41.5 13 43 14.5 43 16.3333V39.6667C43 41.5 41.5 43 39.6667 43H16.3333C14.5 43 13 41.5 13 39.6667V16.3333C13 14.5 14.5 13 16.3333 13ZM19.6667 34.6667C19.6667 35.5833 20.4167 36.3333 21.3333 36.3333C22.25 36.3333 23 35.5833 23 34.6667V26.3333C23 25.4167 22.25 24.6667 21.3333 24.6667C20.4167 24.6667 19.6667 25.4167 19.6667 26.3333V34.6667ZM28 36.3333C27.0833 36.3333 26.3333 35.5833 26.3333 34.6667V21.3333C26.3333 20.4167 27.0833 19.6667 28 19.6667C28.9167 19.6667 29.6667 20.4167 29.6667 21.3333V34.6667C29.6667 35.5833 28.9167 36.3333 28 36.3333ZM33 34.6667C33 35.5833 33.75 36.3333 34.6667 36.3333C35.5833 36.3333 36.3333 35.5833 36.3333 34.6667V31.3333C36.3333 30.4167 35.5833 29.6667 34.6667 29.6667C33.75 29.6667 33 30.4167 33 31.3333V34.6667Z" fill="#00F7FF"/>
</svg>
