<svg width="56" height="56" viewBox="0 0 56 56" fill="none" xmlns="http://www.w3.org/2000/svg">
<rect width="56" height="55.5249" rx="14.5422" fill="#00F7FF" fill-opacity="0.12"/>
<path fill-rule="evenodd" clip-rule="evenodd" d="M39.0833 13.75H16.9167C15.175 13.75 13.75 15.175 13.75 16.9167V28C13.75 29.7417 15.175 31.1667 16.9167 31.1667H39.0833C40.825 31.1667 42.25 29.7417 42.25 28V16.9167C42.25 15.175 40.825 13.75 39.0833 13.75ZM39.0833 23.25H34.1117C33.3675 23.25 32.7817 23.7725 32.5758 24.485C32.0058 26.48 30.1375 28 28 28C25.8625 28 23.9942 26.48 23.4242 24.485C23.2183 23.7725 22.6325 23.25 21.8883 23.25H16.9167V18.5C16.9167 17.6292 17.6292 16.9167 18.5 16.9167H37.5C38.3708 16.9167 39.0833 17.6292 39.0833 18.5V23.25ZM40.6667 34.3333H34.1275C33.3833 34.3333 32.7817 34.8717 32.5758 35.6C32.0217 37.6108 30.185 39.0833 28 39.0833C25.815 39.0833 23.9783 37.6108 23.4242 35.6C23.2183 34.8717 22.6167 34.3333 21.8725 34.3333H15.3333C14.4625 34.3333 13.75 35.0458 13.75 35.9167V39.0833C13.75 40.825 15.175 42.25 16.9167 42.25H39.0833C40.825 42.25 42.25 40.825 42.25 39.0833V35.9167C42.25 35.0458 41.5375 34.3333 40.6667 34.3333Z" fill="#00F7FF"/>
</svg>
