<svg width="56" height="56" viewBox="0 0 56 56" fill="none" xmlns="http://www.w3.org/2000/svg">
<rect width="56" height="55.5249" rx="14.5422" fill="#00F7FF" fill-opacity="0.12"/>
<path fill-rule="evenodd" clip-rule="evenodd" d="M40.6667 16.9167H35.6476L33.6842 14.7792C33.0984 14.13 32.2434 13.75 31.3567 13.75H24.6434C23.7567 13.75 22.9017 14.13 22.3001 14.7792L20.3526 16.9167H15.3334C13.5917 16.9167 12.1667 18.3417 12.1667 20.0833V39.0833C12.1667 40.825 13.5917 42.25 15.3334 42.25H40.6667C42.4084 42.25 43.8334 40.825 43.8334 39.0833V20.0833C43.8334 18.3417 42.4084 16.9167 40.6667 16.9167ZM28.0001 37.5C23.6301 37.5 20.0834 33.9533 20.0834 29.5833C20.0834 25.2133 23.6301 21.6667 28.0001 21.6667C32.3701 21.6667 35.9167 25.2133 35.9167 29.5833C35.9167 33.9533 32.3701 37.5 28.0001 37.5ZM26.0209 27.6042L28.0001 23.25L29.9792 27.6042L34.3334 29.5833L29.9792 31.5625L28.0001 35.9167L26.0209 31.5625L21.6667 29.5833L26.0209 27.6042Z" fill="#00F7FF"/>
</svg>
