<svg width="56" height="56" viewBox="0 0 56 56" fill="none" xmlns="http://www.w3.org/2000/svg">
<rect width="56" height="55.5249" rx="14.5422" fill="#00F7FF" fill-opacity="0.12"/>
<path d="M38 27.375H36.125V22.375C36.125 21 35 19.875 33.625 19.875H28.625V18C28.625 16.275 27.225 14.875 25.5 14.875C23.775 14.875 22.375 16.275 22.375 18V19.875H17.375C16 19.875 14.8875 21 14.8875 22.375V27.125H16.75C18.6125 27.125 20.125 28.6375 20.125 30.5C20.125 32.3625 18.6125 33.875 16.75 33.875H14.875V38.625C14.875 40 16 41.125 17.375 41.125H22.125V39.25C22.125 37.3875 23.6375 35.875 25.5 35.875C27.3625 35.875 28.875 37.3875 28.875 39.25V41.125H33.625C35 41.125 36.125 40 36.125 38.625V33.625H38C39.725 33.625 41.125 32.225 41.125 30.5C41.125 28.775 39.725 27.375 38 27.375Z" fill="#00F7FF"/>
</svg>
