<svg width="32" height="32" viewBox="0 0 32 32" fill="none" xmlns="http://www.w3.org/2000/svg">
<path fill-rule="evenodd" clip-rule="evenodd" d="M5.33333 1.66669C4.04467 1.66669 3 2.71136 3 4.00002V8.00002C3 9.28868 4.04467 10.3334 5.33333 10.3334H6.33333V17.6667H5.33333C4.04467 17.6667 3 18.7114 3 20V24C3 25.2887 4.04467 26.3334 5.33333 26.3334H9.33333C10.622 26.3334 11.6667 25.2887 11.6667 24V23H13.3333C13.8856 23 14.3333 22.5523 14.3333 22C14.3333 21.4477 13.8856 21 13.3333 21H11.6667V20C11.6667 18.7114 10.622 17.6667 9.33333 17.6667H8.33333V10.3334H9.33333C10.622 10.3334 11.6667 9.28868 11.6667 8.00002V7.00002H19V8.00002C19 9.28868 20.0447 10.3334 21.3333 10.3334H22.3333V12C22.3333 12.5523 22.781 13 23.3333 13C23.8856 13 24.3333 12.5523 24.3333 12V10.3334H25.3333C26.622 10.3334 27.6667 9.28868 27.6667 8.00002V4.00002C27.6667 2.71136 26.622 1.66669 25.3333 1.66669H21.3333C20.0447 1.66669 19 2.71136 19 4.00002V5.00002H11.6667V4.00002C11.6667 2.71136 10.622 1.66669 9.33333 1.66669H5.33333ZM23.3333 8.33335L25.3333 8.33335C25.5174 8.33335 25.6667 8.18411 25.6667 8.00002V4.00002C25.6667 3.81593 25.5174 3.66669 25.3333 3.66669H21.3333C21.1492 3.66669 21 3.81593 21 4.00002V6.00002V8.00002C21 8.18411 21.1492 8.33335 21.3333 8.33335L23.3333 8.33335ZM9.66667 20V22V24C9.66667 24.1841 9.51743 24.3334 9.33333 24.3334H5.33333C5.14924 24.3334 5 24.1841 5 24V20C5 19.8159 5.14924 19.6667 5.33333 19.6667H7.33333H9.33333C9.51743 19.6667 9.66667 19.8159 9.66667 20ZM9.66667 4.00002V6.00002V8.00002C9.66667 8.18411 9.51743 8.33335 9.33333 8.33335L7.33333 8.33335L5.33333 8.33335C5.14924 8.33335 5 8.18411 5 8.00002V4.00002C5 3.81593 5.14924 3.66669 5.33333 3.66669H9.33333C9.51743 3.66669 9.66667 3.81593 9.66667 4.00002ZM21.3333 22.6667C20.781 22.6667 20.3333 23.1144 20.3333 23.6667C20.3333 24.219 20.781 24.6667 21.3333 24.6667H24C24.5523 24.6667 25 24.219 25 23.6667C25 23.1144 24.5523 22.6667 24 22.6667H21.3333ZM20.3333 20.3334C20.3333 19.7811 20.781 19.3334 21.3333 19.3334H24C24.5523 19.3334 25 19.7811 25 20.3334C25 20.8856 24.5523 21.3334 24 21.3334H21.3333C20.781 21.3334 20.3333 20.8856 20.3333 20.3334ZM20 15C17.975 15 16.3333 16.6416 16.3333 18.6667V25.3334C16.3333 27.3584 17.975 29 20 29H25.3333C27.3584 29 29 27.3584 29 25.3334V18.6667C29 16.6416 27.3584 15 25.3333 15H20ZM18.3333 18.6667C18.3333 17.7462 19.0795 17 20 17H25.3333C26.2538 17 27 17.7462 27 18.6667V25.3334C27 26.2538 26.2538 27 25.3333 27H20C19.0795 27 18.3333 26.2538 18.3333 25.3334V18.6667Z" fill="white"/>
</svg>
