<svg width="32" height="32" viewBox="0 0 32 32" fill="none" xmlns="http://www.w3.org/2000/svg">
<path fill-rule="evenodd" clip-rule="evenodd" d="M17.4999 14.5C16.6715 13.6716 15.3283 13.6716 14.4999 14.5C13.6715 15.3285 13.6715 16.6716 14.4999 17.5C15.3283 18.3285 16.6715 18.3285 17.4999 17.5C18.3283 16.6716 18.3283 15.3285 17.4999 14.5ZM18.9141 13.0858C17.3047 11.4763 14.6952 11.4763 13.0857 13.0858C11.4762 14.6953 11.4762 17.3048 13.0857 18.9143C14.6952 20.5237 17.3046 20.5237 18.9141 18.9143C20.5236 17.3048 20.5236 14.6953 18.9141 13.0858Z" fill="white"/>
<path fill-rule="evenodd" clip-rule="evenodd" d="M27.8914 14.7206C27.1848 14.014 26.0392 14.014 25.3326 14.7206C24.626 15.4272 24.626 16.5728 25.3326 17.2794C26.0392 17.9859 27.1848 17.9859 27.8914 17.2794C28.598 16.5728 28.598 15.4272 27.8914 14.7206ZM29.3056 13.3064C30.7932 14.794 30.7932 17.2059 29.3056 18.6936C27.818 20.1812 25.406 20.1812 23.9184 18.6936C22.4307 17.2059 22.4307 14.794 23.9184 13.3064C25.406 11.8187 27.818 11.8187 29.3056 13.3064Z" fill="white"/>
<path fill-rule="evenodd" clip-rule="evenodd" d="M6.66734 14.7206C5.96075 14.014 4.81514 14.014 4.10855 14.7206C3.40196 15.4272 3.40197 16.5728 4.10855 17.2794C4.81515 17.9859 5.96075 17.9859 6.66734 17.2794C7.37393 16.5728 7.37393 15.4272 6.66734 14.7206ZM8.08155 13.3064C9.56919 14.794 9.56919 17.2059 8.08156 18.6936C6.59392 20.1812 4.18199 20.1812 2.69434 18.6936C1.2067 17.2059 1.2067 14.794 2.69434 13.3064C4.18198 11.8187 6.59391 11.8187 8.08155 13.3064Z" fill="white"/>
<path fill-rule="evenodd" clip-rule="evenodd" d="M22.5847 5.52994C21.8781 4.82335 20.7325 4.82335 20.0259 5.52994C19.3193 6.23654 19.3193 7.38214 20.0259 8.08873C20.7325 8.79532 21.8781 8.79532 22.5847 8.08873C23.2913 7.38213 23.2913 6.23653 22.5847 5.52994ZM23.9989 4.11573C25.4866 5.60337 25.4866 8.0153 23.9989 9.50294C22.5113 10.9906 20.0994 10.9906 18.6117 9.50294C17.1241 8.0153 17.1241 5.60337 18.6117 4.11573C20.0994 2.62809 22.5113 2.62809 23.9989 4.11573Z" fill="white"/>
<path fill-rule="evenodd" clip-rule="evenodd" d="M11.974 23.9112C11.2674 23.2046 10.1218 23.2046 9.41522 23.9112C8.70863 24.6178 8.70863 25.7634 9.41522 26.47C10.1218 27.1766 11.2674 27.1766 11.974 26.47C12.6806 25.7634 12.6806 24.6178 11.974 23.9112ZM13.3882 22.497C14.8759 23.9847 14.8759 26.3966 13.3882 27.8842C11.9006 29.3719 9.48865 29.3719 8.00101 27.8842C6.51337 26.3966 6.51337 23.9847 8.00101 22.497C9.48864 21.0094 11.9006 21.0094 13.3882 22.497Z" fill="white"/>
<path fill-rule="evenodd" clip-rule="evenodd" d="M11.974 5.52994C11.2674 4.82335 10.1218 4.82335 9.41522 5.52994C8.70863 6.23654 8.70863 7.38214 9.41522 8.08873C10.1218 8.79532 11.2674 8.79532 11.974 8.08873C12.6806 7.38213 12.6806 6.23653 11.974 5.52994ZM13.3882 4.11573C14.8759 5.60337 14.8759 8.0153 13.3882 9.50294C11.9006 10.9906 9.48865 10.9906 8.00101 9.50294C6.51337 8.0153 6.51337 5.60337 8.00101 4.11573C9.48864 2.62809 11.9006 2.62809 13.3882 4.11573Z" fill="white"/>
<path fill-rule="evenodd" clip-rule="evenodd" d="M22.5847 23.9112C21.8781 23.2046 20.7325 23.2046 20.0259 23.9112C19.3193 24.6178 19.3193 25.7634 20.0259 26.47C20.7325 27.1766 21.8781 27.1766 22.5847 26.47C23.2913 25.7634 23.2913 24.6178 22.5847 23.9112ZM23.9989 22.497C25.4866 23.9847 25.4866 26.3966 23.9989 27.8842C22.5113 29.3719 20.0994 29.3719 18.6117 27.8842C17.1241 26.3966 17.1241 23.9847 18.6117 22.497C20.0994 21.0094 22.5113 21.0094 23.9989 22.497Z" fill="white"/>
<path fill-rule="evenodd" clip-rule="evenodd" d="M14.9398 17.8272C15.4181 18.1032 15.5821 18.7148 15.3061 19.1931L12.9594 23.2598C12.6834 23.7382 12.0718 23.9022 11.5935 23.6261C11.1151 23.3501 10.9511 22.7385 11.2271 22.2602L13.5738 18.1935C13.8499 17.7152 14.4614 17.5512 14.9398 17.8272Z" fill="white"/>
<path fill-rule="evenodd" clip-rule="evenodd" d="M11.5935 8.37386C12.0718 8.09782 12.6834 8.26184 12.9594 8.74019L15.3061 12.8069C15.5821 13.2852 15.4181 13.8968 14.9398 14.1728C14.4614 14.4488 13.8499 14.2848 13.5738 13.8065L11.2271 9.7398C10.9511 9.26144 11.1151 8.64989 11.5935 8.37386Z" fill="white"/>
<path fill-rule="evenodd" clip-rule="evenodd" d="M18.12 16C18.12 15.4477 18.5677 15 19.12 15H23.8C24.3522 15 24.8 15.4477 24.8 16C24.8 16.5523 24.3522 17 23.8 17H19.12C18.5677 17 18.12 16.5523 18.12 16Z" fill="white"/>
</svg>
