<svg width="32" height="32" viewBox="0 0 32 32" fill="none" xmlns="http://www.w3.org/2000/svg">
<path fill-rule="evenodd" clip-rule="evenodd" d="M14.3334 4.00002C14.3334 3.81631 14.483 3.66669 14.6667 3.66669H17.3334C17.5171 3.66669 17.6667 3.81631 17.6667 4.00002V5.33335V6.66669C17.6667 6.8504 17.5171 7.00002 17.3334 7.00002H14.6667C14.483 7.00002 14.3334 6.8504 14.3334 6.66669V5.33475L14.3334 5.33335L14.3334 5.33196V4.00002ZM19.6667 4.00002V4.33335H24.0001C26.0257 4.33335 27.6667 5.9744 27.6667 8.00002V12.3334H28.0001C29.2884 12.3334 30.3334 13.3784 30.3334 14.6667V17.3334C30.3334 18.6216 29.2884 19.6667 28.0001 19.6667H27.6667V24C27.6667 26.0256 26.0257 27.6667 24.0001 27.6667H19.6667V28C19.6667 29.2883 18.6217 30.3334 17.3334 30.3334H14.6667C13.3785 30.3334 12.3334 29.2883 12.3334 28V27.6667H8.00008C5.97446 27.6667 4.33342 26.0256 4.33342 24V19.6667H4.00008C2.7118 19.6667 1.66675 18.6216 1.66675 17.3334V14.6667C1.66675 13.3784 2.7118 12.3334 4.00008 12.3334H4.33342V8.00002C4.33342 5.9744 5.97446 4.33335 8.00008 4.33335H12.3334V4.00002C12.3334 2.71174 13.3785 1.66669 14.6667 1.66669H17.3334C18.6217 1.66669 19.6667 2.71174 19.6667 4.00002ZM6.33342 19.6667V24C6.33342 24.9211 7.07903 25.6667 8.00008 25.6667H12.3334V25.3334C12.3334 24.0451 13.3785 23 14.6667 23H17.3334C18.6217 23 19.6667 24.0451 19.6667 25.3334V25.6667H24.0001C24.9211 25.6667 25.6667 24.9211 25.6667 24V19.6667H25.3334C24.0451 19.6667 23.0001 18.6216 23.0001 17.3334V14.6667C23.0001 13.3784 24.0451 12.3334 25.3334 12.3334H25.6667V8.00002C25.6667 7.07897 24.9211 6.33335 24.0001 6.33335H19.6667V6.66669C19.6667 7.95497 18.6217 9.00002 17.3334 9.00002H14.6667C13.3785 9.00002 12.3334 7.95497 12.3334 6.66669V6.33335H8.00008C7.07903 6.33335 6.33342 7.07897 6.33342 8.00002V12.3334H6.66675C7.95503 12.3334 9.00008 13.3784 9.00008 14.6667V17.3334C9.00008 18.6216 7.95503 19.6667 6.66675 19.6667H6.33342ZM5.33342 17.6667H4.00008C3.81637 17.6667 3.66675 17.5171 3.66675 17.3334V14.6667C3.66675 14.483 3.81637 14.3334 4.00008 14.3334H5.33202L5.33342 14.3334L5.33481 14.3334H6.66675C6.85046 14.3334 7.00008 14.483 7.00008 14.6667V17.3334C7.00008 17.5171 6.85046 17.6667 6.66675 17.6667H5.33342ZM14.3334 28V26.6681L14.3334 26.6667L14.3334 26.6653V25.3334C14.3334 25.1496 14.483 25 14.6667 25H17.3334C17.5171 25 17.6667 25.1496 17.6667 25.3334V26.6667V28C17.6667 28.1837 17.5171 28.3334 17.3334 28.3334H14.6667C14.483 28.3334 14.3334 28.1837 14.3334 28ZM26.6667 17.6667H28.0001C28.1838 17.6667 28.3334 17.5171 28.3334 17.3334V14.6667C28.3334 14.483 28.1838 14.3334 28.0001 14.3334H26.6681L26.6667 14.3334L26.6654 14.3334H25.3334C25.1497 14.3334 25.0001 14.483 25.0001 14.6667V17.3334C25.0001 17.5171 25.1497 17.6667 25.3334 17.6667H26.6667ZM17.2667 12C17.2667 12.6339 16.7547 13.168 16.1001 13.168C15.4558 13.168 14.9334 12.6456 14.9334 12.0013C14.9334 11.0529 15.712 10.8402 16.0856 10.8348C16.744 10.8252 17.2667 11.3586 17.2667 12ZM16.1001 17.168C16.7547 17.168 17.2667 16.6339 17.2667 16C17.2667 15.3586 16.744 14.8252 16.0856 14.8348C15.712 14.8402 14.9334 15.0529 14.9334 16.0013C14.9334 16.6456 15.4558 17.168 16.1001 17.168ZM17.2667 20C17.2667 20.6339 16.7547 21.168 16.1001 21.168C15.4558 21.168 14.9334 20.6456 14.9334 20.0013C14.9334 19.0529 15.712 18.8402 16.0856 18.8348C16.744 18.8252 17.2667 19.3586 17.2667 20ZM19.7735 17.168C20.4281 17.168 20.9402 16.6339 20.9402 16C20.9402 15.3586 20.4174 14.8252 19.759 14.8348C19.3854 14.8402 18.6069 15.0529 18.6069 16.0013C18.6069 16.6456 19.1292 17.168 19.7735 17.168ZM13.1334 16C13.1334 16.6339 12.6214 17.168 11.9667 17.168C11.3225 17.168 10.8001 16.6456 10.8001 16.0013C10.8001 15.0529 11.5787 14.8402 11.9523 14.8348C12.6106 14.8252 13.1334 15.3586 13.1334 16Z" fill="white"/>
</svg>
