<svg width="32" height="32" viewBox="0 0 32 32" fill="none" xmlns="http://www.w3.org/2000/svg">
<path fill-rule="evenodd" clip-rule="evenodd" d="M9.33341 5C8.41294 5 7.66675 5.74619 7.66675 6.66667V12C7.66675 12.5523 7.21903 13 6.66675 13C6.11446 13 5.66675 12.5523 5.66675 12V6.66667C5.66675 4.64162 7.30837 3 9.33341 3H25.3334C27.3585 3 29.0001 4.64162 29.0001 6.66667V24C29.0001 26.025 27.3585 27.6667 25.3334 27.6667H20.0001C19.4478 27.6667 19.0001 27.219 19.0001 26.6667C19.0001 26.1144 19.4478 25.6667 20.0001 25.6667H25.3334C26.2539 25.6667 27.0001 24.9205 27.0001 24V6.66667C27.0001 5.74619 26.2539 5 25.3334 5H9.33341ZM19.0001 9.33333C19.0001 8.78105 19.4478 8.33333 20.0001 8.33333H22.6666H22.6667C23.219 8.33333 23.6667 8.78105 23.6667 9.33333V12C23.6667 12.5523 23.219 13 22.6667 13C22.1145 13 21.6667 12.5523 21.6667 12V11.7483L19.376 14.0402C19.1877 14.2286 18.9431 14.3262 18.6963 14.333C18.4674 14.3398 18.2349 14.2685 18.0421 14.1142L15.4076 12.0067L14.0405 13.3738C13.65 13.7643 13.0168 13.7643 12.6263 13.3738C12.2358 12.9832 12.2358 12.3501 12.6263 11.9596L14.6211 9.96474C14.8144 9.76813 15.0737 9.6664 15.3351 9.66667C15.4549 9.66679 15.5751 9.68833 15.6896 9.73198C15.7885 9.76961 15.8826 9.82349 15.9679 9.89363L18.5934 11.9941L20.2533 10.3333H20.0001C19.4478 10.3333 19.0001 9.88562 19.0001 9.33333ZM19.0001 17.3333C19.0001 16.781 19.4478 16.3333 20.0001 16.3333H22.6667C23.219 16.3333 23.6667 16.781 23.6667 17.3333C23.6667 17.8856 23.219 18.3333 22.6667 18.3333H20.0001C19.4478 18.3333 19.0001 17.8856 19.0001 17.3333ZM20.0001 20.3333C19.4478 20.3333 19.0001 20.781 19.0001 21.3333C19.0001 21.8856 19.4478 22.3333 20.0001 22.3333H22.6667C23.219 22.3333 23.6667 21.8856 23.6667 21.3333C23.6667 20.781 23.219 20.3333 22.6667 20.3333H20.0001ZM12.1306 20.9149C12.5212 21.3054 12.5214 21.9385 12.1309 22.3292L9.46569 24.9958C9.07532 25.3864 8.44225 25.3866 8.0516 24.9963L6.45019 23.3963C6.05949 23.006 6.05921 22.3728 6.44956 21.9821C6.83992 21.5914 7.47308 21.5911 7.86378 21.9815L8.75789 22.8748L10.7163 20.9153C11.1068 20.5247 11.7399 20.5245 12.1306 20.9149ZM6.66675 15C3.90532 15 1.66675 17.2386 1.66675 20V25.3333C1.66675 28.0948 3.90532 30.3333 6.66675 30.3333H12.0001C14.7615 30.3333 17.0001 28.0948 17.0001 25.3333V20C17.0001 17.2386 14.7615 15 12.0001 15H6.66675ZM3.66675 20C3.66675 18.3431 5.00989 17 6.66675 17H12.0001C13.6569 17 15.0001 18.3431 15.0001 20V25.3333C15.0001 26.9902 13.6569 28.3333 12.0001 28.3333H6.66675C5.00989 28.3333 3.66675 26.9902 3.66675 25.3333V20Z" fill="white"/>
</svg>
