<svg width="32" height="32" viewBox="0 0 32 32" fill="none" xmlns="http://www.w3.org/2000/svg">
<path fill-rule="evenodd" clip-rule="evenodd" d="M27.2301 15.9933C27.6207 16.3838 27.6207 17.017 27.2301 17.4075L26.3832 18.2544C25.9927 18.645 25.3595 18.645 24.969 18.2544C24.5785 17.8639 24.5785 17.2307 24.969 16.8402L25.8159 15.9933C26.2064 15.6028 26.8396 15.6028 27.2301 15.9933Z" fill="white"/>
<path fill-rule="evenodd" clip-rule="evenodd" d="M18.2545 24.9689C18.6451 25.3594 18.6451 25.9926 18.2545 26.3831L17.4076 27.23C17.0171 27.6205 16.3839 27.6205 15.9934 27.23C15.6029 26.8395 15.6029 26.2063 15.9934 25.8158L16.8403 24.9689C17.2309 24.5784 17.864 24.5784 18.2545 24.9689Z" fill="white"/>
<path fill-rule="evenodd" clip-rule="evenodd" d="M21.6118 13.6661C22.1641 13.6661 22.6118 14.1138 22.6118 14.6661V15.8638C22.6118 16.4161 22.1641 16.8638 21.6118 16.8638C21.0595 16.8638 20.6118 16.4161 20.6118 15.8638V14.6661C20.6118 14.1138 21.0595 13.6661 21.6118 13.6661Z" fill="white"/>
<path fill-rule="evenodd" clip-rule="evenodd" d="M15.9934 15.9933C16.3839 15.6028 17.0171 15.6028 17.4076 15.9933L18.2545 16.8402C18.6451 17.2307 18.6451 17.8639 18.2545 18.2544C17.864 18.645 17.2309 18.645 16.8403 18.2544L15.9934 17.4075C15.6029 17.017 15.6029 16.3838 15.9934 15.9933Z" fill="white"/>
<path fill-rule="evenodd" clip-rule="evenodd" d="M13.6662 21.6117C13.6662 21.0594 14.1139 20.6117 14.6662 20.6117H15.8639C16.4162 20.6117 16.8639 21.0594 16.8639 21.6117C16.8639 22.1639 16.4162 22.6117 15.8639 22.6117H14.6662C14.1139 22.6117 13.6662 22.1639 13.6662 21.6117Z" fill="white"/>
<path fill-rule="evenodd" clip-rule="evenodd" d="M20.105 20.1048C20.5704 19.6393 21.259 19.4768 21.8835 19.685L27.8166 21.6627C28.4605 21.8773 28.9205 22.4471 28.9946 23.1218C29.0687 23.7964 28.7432 24.4525 28.1613 24.8017L26.1637 26.0003C26.0967 26.0404 26.0406 26.0965 26.0004 26.1635L24.8019 28.161C24.4527 28.743 23.7966 29.0685 23.122 28.9945C22.4473 28.9204 21.8775 28.4604 21.6628 27.8165L19.6851 21.8833C19.4769 21.2588 19.6395 20.5703 20.105 20.1048ZM21.7482 21.7481L26.6436 23.3799L25.1347 24.2853C24.7862 24.4943 24.4945 24.786 24.2854 25.1345L23.38 26.6435L21.7482 21.7481Z" fill="white"/>
<path fill-rule="evenodd" clip-rule="evenodd" d="M24.6578 24.6576C25.0483 24.2671 25.6815 24.2671 26.072 24.6576L28.3334 26.9191C28.7239 27.3096 28.7239 27.9428 28.3334 28.3333C27.9429 28.7238 27.3097 28.7238 26.9192 28.3333L24.6578 26.0719C24.2672 25.6813 24.2672 25.0482 24.6578 24.6576Z" fill="white"/>
<path fill-rule="evenodd" clip-rule="evenodd" d="M2.99512 9.33055C2.99512 8.77827 3.44283 8.33055 3.99512 8.33055H28.0051C28.5574 8.33055 29.0051 8.77827 29.0051 9.33055C29.0051 9.88284 28.5574 10.3306 28.0051 10.3306H3.99512C3.44283 10.3306 2.99512 9.88284 2.99512 9.33055Z" fill="white"/>
<path fill-rule="evenodd" clip-rule="evenodd" d="M7.99678 4.995C6.33901 4.995 4.99512 6.33889 4.99512 7.99666V18.6678C4.99512 20.3255 6.33901 21.6694 7.99678 21.6694H9.33067C9.88296 21.6694 10.3307 22.1172 10.3307 22.6694C10.3307 23.2217 9.88296 23.6694 9.33067 23.6694H7.99678C5.23444 23.6694 2.99512 21.4301 2.99512 18.6678V7.99666C2.99512 5.23432 5.23444 2.995 7.99678 2.995H24.0035C26.7658 2.995 29.0051 5.23432 29.0051 7.99666V11.9983C29.0051 12.5506 28.5574 12.9983 28.0051 12.9983C27.4528 12.9983 27.0051 12.5506 27.0051 11.9983V7.99666C27.0051 6.33889 25.6612 4.995 24.0035 4.995H7.99678Z" fill="white"/>
</svg>
