<svg width="21" height="20" viewBox="0 0 21 20" fill="none" xmlns="http://www.w3.org/2000/svg">
<path fill-rule="evenodd" clip-rule="evenodd" d="M16.3333 1.66666C16.6023 2.91923 17.5807 3.89768 18.8333 4.16666C17.5807 4.43563 16.6023 5.41408 16.3333 6.66666C16.0643 5.41408 15.0859 4.43563 13.8333 4.16666C15.0859 3.89768 16.0643 2.91923 16.3333 1.66666ZM8.06 1.83333C8.81958 5.37059 11.5827 8.13374 15.12 8.89333C11.5827 9.65291 8.81958 12.4161 8.06 15.9533C7.30042 12.4161 4.53726 9.65291 1 8.89333C4.53726 8.13374 7.30042 5.37059 8.06 1.83333ZM18.8333 15C17.1632 14.6414 15.8586 13.3368 15.5 11.6667C15.1413 13.3368 13.8367 14.6414 12.1666 15C13.8367 15.3586 15.1413 16.6632 15.5 18.3333C15.8586 16.6632 17.1632 15.3586 18.8333 15Z" fill="#F7A809"/>
</svg>
