<svg width="20" height="20" viewBox="0 0 20 20" fill="none" xmlns="http://www.w3.org/2000/svg">
<path fill-rule="evenodd" clip-rule="evenodd" d="M4.293 4.29296C4.48053 4.10549 4.73484 4.00017 5 4.00017C5.26516 4.00017 5.51947 4.10549 5.707 4.29296L10 8.58596L14.293 4.29296C14.3852 4.19745 14.4956 4.12127 14.6176 4.06886C14.7396 4.01645 14.8708 3.98886 15.0036 3.98771C15.1364 3.98655 15.2681 4.01186 15.391 4.06214C15.5139 4.11242 15.6255 4.18667 15.7194 4.28056C15.8133 4.37446 15.8875 4.48611 15.9378 4.60901C15.9881 4.7319 16.0134 4.86358 16.0123 4.99636C16.0111 5.12914 15.9835 5.26036 15.9311 5.38236C15.8787 5.50437 15.8025 5.61471 15.707 5.70696L11.414 9.99996L15.707 14.293C15.8892 14.4816 15.99 14.7342 15.9877 14.9964C15.9854 15.2586 15.8802 15.5094 15.6948 15.6948C15.5094 15.8802 15.2586 15.9854 14.9964 15.9876C14.7342 15.9899 14.4816 15.8891 14.293 15.707L10 11.414L5.707 15.707C5.5184 15.8891 5.2658 15.9899 5.0036 15.9876C4.7414 15.9854 4.49059 15.8802 4.30518 15.6948C4.11977 15.5094 4.0146 15.2586 4.01233 14.9964C4.01005 14.7342 4.11084 14.4816 4.293 14.293L8.586 9.99996L4.293 5.70696C4.10553 5.51943 4.00021 5.26512 4.00021 4.99996C4.00021 4.73479 4.10553 4.48049 4.293 4.29296Z" fill="black"/>
</svg>
